<svg width="21" height="20" viewBox="0 0 21 20" fill="none" xmlns="http://www.w3.org/2000/svg"><path d="M20.681 4.742a5.895 5.895 0 0 0-1.702-2.494 5.882 5.882 0 0 0-2.71-1.334 5.927 5.927 0 0 0-1.144-.111 5.868 5.868 0 0 0-4.636 2.258A5.868 5.868 0 0 0 5.857.807 5.919 5.919 0 0 0 1.04 3.31 5.627 5.627 0 0 0 .04 5.92c-.097.829-.022 1.72.223 2.646.486 1.835 1.561 3.51 2.378 4.591 1.775 2.351 4.215 4.485 7.461 6.524l.388.244.388-.244c3.992-2.508 6.779-5.156 8.519-8.095 1-1.69 1.522-3.196 1.594-4.604a5.841 5.841 0 0 0-.311-2.24zM10.491 18.2c-2.9-1.867-5.09-3.807-6.686-5.921-.738-.977-1.706-2.48-2.131-4.086-.199-.749-.26-1.457-.185-2.104a4.184 4.184 0 0 1 .742-1.94 4.455 4.455 0 0 1 1.586-1.38 4.412 4.412 0 0 1 4.414.186c.69.438 1.245 1.058 1.604 1.791l.656 1.336.654-1.337a4.444 4.444 0 0 1 1.605-1.794 4.413 4.413 0 0 1 3.237-.606 4.422 4.422 0 0 1 2.036 1.004 4.436 4.436 0 0 1 1.282 1.875c.183.523.261 1.09.23 1.684-.059 1.166-.514 2.453-1.392 3.935-1.563 2.64-4.069 5.05-7.652 7.357z" fill="#000"/></svg>