<svg width="21" height="22" viewBox="0 0 21 22" fill="none" xmlns="http://www.w3.org/2000/svg"><path d="M18.214 5.85H15V3.17C15 1.421 13.75 0 12.214 0H2.786C1.25 0 0 1.422 0 3.17v4.875c0 1.665 1.135 3.035 2.571 3.16v4.944L6 12.25v1.647c0 1.747 1.25 3.17 2.786 3.17h5.305L18.429 22v-4.944C19.865 16.93 21 15.56 21 13.896V9.02c0-1.747-1.25-3.17-2.786-3.17zM6 9.02v1.16l-2.143 2.438V9.75H2.786c-.827 0-1.5-.765-1.5-1.706V3.169c0-.94.673-1.706 1.5-1.706h9.428c.827 0 1.5.765 1.5 1.706v2.682H8.786C7.25 5.85 6 7.273 6 9.02zm13.714 4.876c0 .94-.673 1.706-1.5 1.706h-1.071v2.867l-2.52-2.867H8.786c-.827 0-1.5-.765-1.5-1.706V9.02c0-.94.673-1.706 1.5-1.706h9.428c.827 0 1.5.765 1.5 1.706v4.876z" fill="#000"/></svg>