<svg width="141" height="52" viewBox="0 0 141 52" fill="none" xmlns="http://www.w3.org/2000/svg"><g clip-path="url(#clip0)"><path d="M0 0h51.676v51.999H0V0z" fill="#F4F5F9"/><path d="M41.954 0H141v51.999H41.954V0z" stroke="#F4F5F9" stroke-width="6" stroke-miterlimit="50"/><path d="M15.732 12.346h9.229c4.205 0 7.255.602 9.148 1.805 1.906 1.19 2.86 3.09 2.86 5.7 0 1.771-.42 3.225-1.258 4.36-.825 1.137-1.927 1.82-3.306 2.05v.202c1.88.42 3.232 1.203 4.056 2.353.839 1.15 1.258 2.677 1.258 4.584 0 2.704-.98 4.814-2.941 6.328C32.831 41.243 30.18 42 26.827 42H15.732V12.346zM22.02 24.09h3.65c1.705 0 2.935-.264 3.692-.791.771-.527 1.157-1.4 1.157-2.617 0-1.135-.42-1.947-1.258-2.434-.825-.5-2.136-.75-3.935-.75H22.02v6.592zm0 4.99v7.727h4.097c1.73 0 3.009-.33 3.834-.993.825-.663 1.237-1.677 1.237-3.043 0-2.46-1.758-3.691-5.274-3.691H22.02z" fill="#4A4C55"/><path d="M65.199 42V12.346h2.069V42h-2.07zm32.027 0h-2.09L77.572 15.672h-.162c.162 3.137.243 5.504.243 7.1V42h-1.987V12.346h2.069l17.545 26.287h.121a139.189 139.189 0 0 1-.182-6.937v-19.35h2.008V42zm33.345-14.868c0 4.706-1.176 8.431-3.529 11.177-2.353 2.73-5.598 4.097-9.736 4.097-4.124 0-7.363-1.366-9.715-4.097-2.353-2.745-3.53-6.484-3.53-11.217 0-4.72 1.183-8.431 3.55-11.136 2.38-2.718 5.625-4.077 9.736-4.077 4.138 0 7.376 1.366 9.715 4.098 2.34 2.718 3.509 6.436 3.509 11.155zm-24.258 0c0 4.246.946 7.532 2.839 9.858 1.893 2.312 4.611 3.468 8.154 3.468 3.57 0 6.295-1.149 8.174-3.448 1.893-2.298 2.84-5.591 2.84-9.878 0-4.273-.947-7.545-2.84-9.817-1.879-2.285-4.59-3.428-8.133-3.428-3.53 0-6.254 1.15-8.174 3.449-1.907 2.298-2.86 5.564-2.86 9.796z" fill="#F1EBE7"/></g><defs><clipPath id="clip0"><path fill="#fff" d="M0 0h141v52H0z"/></clipPath></defs></svg>